<?xml version="1.0" standalone="no"?><!DOCTYPE svg PUBLIC "-//W3C//DTD SVG 1.1//EN" "http://www.w3.org/Graphics/SVG/1.1/DTD/svg11.dtd"><svg t="1599119524567" class="icon" viewBox="0 0 1024 1024" version="1.1" xmlns="http://www.w3.org/2000/svg" p-id="5908" width="24" height="24" xmlns:xlink="http://www.w3.org/1999/xlink"><defs><style type="text/css"></style></defs><path d="M896 256v576a128 128 0 0 1-128 128H256a128 128 0 0 1-128-128V256H64v-64h192v-64a64 64 0 0 1 64-64h384a64 64 0 0 1 64 64v64h192v64h-64zM704 128H320v64h384v-64z m128 128H192v576a64 64 0 0 0 64 64h512a64 64 0 0 0 64-64V256zM576 384h64v384h-64V384z m-192 0h64v384h-64V384z" p-id="5909" fill="#6f6f6f"></path></svg>